<?xml version="1.0" encoding="UTF-8" standalone="no"?>
<!DOCTYPE svg PUBLIC "-//W3C//DTD SVG 1.1//EN"
 "http://www.w3.org/Graphics/SVG/1.1/DTD/svg11.dtd">
<!-- Generated by graphviz version 11.0.0 (20240519.1550)
 -->
<!-- Title: snakemake_dag Pages: 1 -->
<svg width="172pt" height="189pt"
 viewBox="0.00 0.00 171.75 188.50" xmlns="http://www.w3.org/2000/svg" xmlns:xlink="http://www.w3.org/1999/xlink">
<g id="graph0" class="graph" transform="scale(1 1) rotate(0) translate(4 184.5)">
<title>snakemake_dag</title>
<polygon fill="white" stroke="none" points="-4,4 -4,-184.5 167.75,-184.5 167.75,4 -4,4"/>
<!-- 0 -->
<g id="node1" class="node">
<title>0</title>
<path fill="none" stroke="#56d8a9" stroke-width="2" d="M98,-36C98,-36 68,-36 68,-36 62,-36 56,-30 56,-24 56,-24 56,-12 56,-12 56,-6 62,0 68,0 68,0 98,0 98,0 104,0 110,-6 110,-12 110,-12 110,-24 110,-24 110,-30 104,-36 98,-36"/>
<text text-anchor="middle" x="83" y="-15.62" font-family="sans" font-size="10.00">results</text>
</g>
<!-- 1 -->
<g id="node2" class="node">
<title>1</title>
<path fill="none" stroke="#afd856" stroke-width="2" d="M61.75,-108C61.75,-108 14.25,-108 14.25,-108 8.25,-108 2.25,-102 2.25,-96 2.25,-96 2.25,-84 2.25,-84 2.25,-78 8.25,-72 14.25,-72 14.25,-72 61.75,-72 61.75,-72 67.75,-72 73.75,-78 73.75,-84 73.75,-84 73.75,-96 73.75,-96 73.75,-102 67.75,-108 61.75,-108"/>
<text text-anchor="middle" x="38" y="-87.62" font-family="sans" font-size="10.00">filter_genes</text>
</g>
<!-- 1&#45;&gt;0 -->
<g id="edge1" class="edge">
<title>1&#45;&gt;0</title>
<path fill="none" stroke="grey" stroke-width="2" d="M49.36,-71.34C53.96,-64.18 59.39,-55.73 64.53,-47.73"/>
<polygon fill="grey" stroke="grey" stroke-width="2" points="67.39,-49.75 69.85,-39.45 61.5,-45.97 67.39,-49.75"/>
</g>
<!-- 2 -->
<g id="node3" class="node">
<title>2</title>
<path fill="none" stroke="#d85656" stroke-width="2" d="M64,-180.5C64,-180.5 12,-180.5 12,-180.5 6,-180.5 0,-174.5 0,-168.5 0,-168.5 0,-156 0,-156 0,-150 6,-144 12,-144 12,-144 64,-144 64,-144 70,-144 76,-150 76,-156 76,-156 76,-168.5 76,-168.5 76,-174.5 70,-180.5 64,-180.5"/>
<text text-anchor="middle" x="38" y="-167" font-family="sans" font-size="10.00">filter_cells</text>
<text text-anchor="middle" x="38" y="-152.75" font-family="sans" font-size="10.00">sample: rd10</text>
</g>
<!-- 2&#45;&gt;1 -->
<g id="edge3" class="edge">
<title>2&#45;&gt;1</title>
<path fill="none" stroke="grey" stroke-width="2" d="M38,-143.16C38,-136.64 38,-129.08 38,-121.77"/>
<polygon fill="grey" stroke="grey" stroke-width="2" points="41.5,-121.81 38,-111.81 34.5,-121.81 41.5,-121.81"/>
</g>
<!-- 3 -->
<g id="node4" class="node">
<title>3</title>
<path fill="none" stroke="#afd856" stroke-width="2" d="M151.75,-108C151.75,-108 104.25,-108 104.25,-108 98.25,-108 92.25,-102 92.25,-96 92.25,-96 92.25,-84 92.25,-84 92.25,-78 98.25,-72 104.25,-72 104.25,-72 151.75,-72 151.75,-72 157.75,-72 163.75,-78 163.75,-84 163.75,-84 163.75,-96 163.75,-96 163.75,-102 157.75,-108 151.75,-108"/>
<text text-anchor="middle" x="128" y="-87.62" font-family="sans" font-size="10.00">filter_genes</text>
</g>
<!-- 3&#45;&gt;0 -->
<g id="edge2" class="edge">
<title>3&#45;&gt;0</title>
<path fill="none" stroke="grey" stroke-width="2" d="M116.64,-71.34C112.04,-64.18 106.61,-55.73 101.47,-47.73"/>
<polygon fill="grey" stroke="grey" stroke-width="2" points="104.5,-45.97 96.15,-39.45 98.61,-49.75 104.5,-45.97"/>
</g>
<!-- 4 -->
<g id="node5" class="node">
<title>4</title>
<path fill="none" stroke="#d85656" stroke-width="2" d="M148.75,-180.5C148.75,-180.5 107.25,-180.5 107.25,-180.5 101.25,-180.5 95.25,-174.5 95.25,-168.5 95.25,-168.5 95.25,-156 95.25,-156 95.25,-150 101.25,-144 107.25,-144 107.25,-144 148.75,-144 148.75,-144 154.75,-144 160.75,-150 160.75,-156 160.75,-156 160.75,-168.5 160.75,-168.5 160.75,-174.5 154.75,-180.5 148.75,-180.5"/>
<text text-anchor="middle" x="128" y="-167" font-family="sans" font-size="10.00">filter_cells</text>
<text text-anchor="middle" x="128" y="-152.75" font-family="sans" font-size="10.00">sample: wt</text>
</g>
<!-- 4&#45;&gt;3 -->
<g id="edge4" class="edge">
<title>4&#45;&gt;3</title>
<path fill="none" stroke="grey" stroke-width="2" d="M128,-143.16C128,-136.64 128,-129.08 128,-121.77"/>
<polygon fill="grey" stroke="grey" stroke-width="2" points="131.5,-121.81 128,-111.81 124.5,-121.81 131.5,-121.81"/>
</g>
</g>
</svg>
